<svg width="100" height="99" viewBox="0 0 100 99" fill="none" xmlns="http://www.w3.org/2000/svg">
<circle cx="49.6058" cy="49.5" r="49.5" fill="white"/>
<path d="M30.5258 43.8C32.5925 43.8 34.2125 44.3733 35.3858 45.52C36.5725 46.6533 37.1658 48.28 37.1658 50.4C37.1658 52.52 36.5725 54.1533 35.3858 55.3C34.2125 56.4333 32.5925 57 30.5258 57H26.2658V43.8H30.5258ZM30.6858 55.5C32.1925 55.5 33.3658 55.0533 34.2058 54.16C35.0592 53.2533 35.4858 52 35.4858 50.4C35.4858 48.8 35.0592 47.5533 34.2058 46.66C33.3658 45.7533 32.1925 45.3 30.6858 45.3H27.8658V55.5H30.6858ZM40.2822 57V47H41.5822L41.8022 48.64C42.0822 48.0267 42.4889 47.5667 43.0222 47.26C43.5689 46.9533 44.2289 46.8 45.0022 46.8C45.1756 46.8 45.3622 46.8133 45.5622 46.84C45.7756 46.8667 45.9556 46.92 46.1022 47L45.8222 48.46C45.6756 48.4067 45.5156 48.3667 45.3422 48.34C45.1689 48.3133 44.9222 48.3 44.6022 48.3C44.1889 48.3 43.7689 48.42 43.3422 48.66C42.9289 48.9 42.5822 49.2667 42.3022 49.76C42.0222 50.24 41.8822 50.8533 41.8822 51.6V57H40.2822ZM54.0129 50.54C54.0129 49.7933 53.8129 49.22 53.4129 48.82C53.0129 48.4067 52.4462 48.2 51.7129 48.2C51.0195 48.2 50.4329 48.3533 49.9529 48.66C49.4729 48.9533 49.1195 49.4333 48.8929 50.1L47.5929 49.3C47.8595 48.5533 48.3529 47.9533 49.0729 47.5C49.7929 47.0333 50.6862 46.8 51.7529 46.8C52.4729 46.8 53.1262 46.9267 53.7129 47.18C54.2995 47.42 54.7595 47.7933 55.0929 48.3C55.4395 48.7933 55.6129 49.4333 55.6129 50.22V55.06C55.6129 55.54 55.8662 55.78 56.3729 55.78C56.6262 55.78 56.8729 55.7467 57.1129 55.68L57.0329 56.94C56.7662 57.0733 56.4195 57.14 55.9929 57.14C55.6062 57.14 55.2595 57.0667 54.9529 56.92C54.6462 56.7733 54.4062 56.5533 54.2329 56.26C54.0595 55.9533 53.9729 55.5733 53.9729 55.12V54.92L54.3729 54.98C54.2129 55.5 53.9395 55.9267 53.5529 56.26C53.1662 56.58 52.7329 56.82 52.2529 56.98C51.7729 57.1267 51.2995 57.2 50.8329 57.2C50.2462 57.2 49.6995 57.1 49.1929 56.9C48.6862 56.7 48.2795 56.4 47.9729 56C47.6795 55.5867 47.5329 55.08 47.5329 54.48C47.5329 53.7333 47.7795 53.12 48.2729 52.64C48.7795 52.1467 49.4795 51.8133 50.3729 51.64L54.3329 50.86V52.18L51.1129 52.84C50.4595 52.9733 49.9729 53.16 49.6529 53.4C49.3329 53.64 49.1729 53.9733 49.1729 54.4C49.1729 54.8133 49.3329 55.1533 49.6529 55.42C49.9862 55.6733 50.4529 55.8 51.0529 55.8C51.4395 55.8 51.8062 55.7533 52.1529 55.66C52.5129 55.5533 52.8329 55.4 53.1129 55.2C53.3929 54.9867 53.6129 54.7267 53.7729 54.42C53.9329 54.1 54.0129 53.7267 54.0129 53.3V50.54ZM67.921 45.16L68.281 46.58C68.2677 46.58 68.2477 46.58 68.221 46.58C68.1943 46.58 68.1677 46.58 68.141 46.58C67.4877 46.58 66.981 46.7133 66.621 46.98C66.2743 47.2333 66.101 47.6467 66.101 48.22L65.121 47.72C65.121 47.2 65.241 46.7467 65.481 46.36C65.721 45.9733 66.0477 45.68 66.461 45.48C66.8743 45.2667 67.3277 45.16 67.821 45.16C67.8343 45.16 67.8477 45.16 67.861 45.16C67.8877 45.16 67.9077 45.16 67.921 45.16ZM64.881 55.72C65.8277 55.72 66.5677 55.94 67.101 56.38C67.6343 56.8067 67.901 57.38 67.901 58.1C67.901 58.7533 67.681 59.32 67.241 59.8C66.8143 60.28 66.2343 60.6467 65.501 60.9C64.781 61.1667 63.9677 61.3 63.061 61.3C61.4877 61.3 60.3077 61.0333 59.521 60.5C58.7477 59.9667 58.361 59.3267 58.361 58.58C58.361 58.0467 58.5343 57.5667 58.881 57.14C59.241 56.7267 59.841 56.4933 60.681 56.44L60.541 56.74C60.0877 56.62 59.701 56.42 59.381 56.14C59.0743 55.8467 58.921 55.4267 58.921 54.88C58.921 54.3333 59.121 53.8667 59.521 53.48C59.9343 53.08 60.541 52.8333 61.341 52.74L62.401 53.28H62.201C61.5477 53.3467 61.081 53.5133 60.801 53.78C60.5343 54.0333 60.401 54.3133 60.401 54.62C60.401 54.9933 60.5343 55.2733 60.801 55.46C61.081 55.6333 61.4677 55.72 61.961 55.72H64.881ZM63.041 59.96C63.8143 59.96 64.4477 59.88 64.941 59.72C65.4477 59.56 65.821 59.3533 66.061 59.1C66.301 58.8467 66.421 58.5733 66.421 58.28C66.421 57.92 66.2743 57.6333 65.981 57.42C65.701 57.2067 65.1877 57.1 64.441 57.1H61.361C60.9343 57.1 60.5743 57.2067 60.281 57.42C59.9877 57.6467 59.841 57.9533 59.841 58.34C59.841 58.8333 60.121 59.2267 60.681 59.52C61.2543 59.8133 62.041 59.96 63.041 59.96ZM62.901 46.8C63.701 46.8 64.4077 46.9467 65.021 47.24C65.6477 47.52 66.1343 47.9133 66.481 48.42C66.8277 48.9267 67.001 49.5133 67.001 50.18C67.001 50.8333 66.8277 51.42 66.481 51.94C66.1343 52.4467 65.6477 52.8467 65.021 53.14C64.4077 53.42 63.701 53.56 62.901 53.56C61.581 53.56 60.5677 53.2467 59.861 52.62C59.1543 51.98 58.801 51.1667 58.801 50.18C58.801 49.5133 58.9743 48.9267 59.321 48.42C59.681 47.9133 60.1677 47.52 60.781 47.24C61.3943 46.9467 62.101 46.8 62.901 46.8ZM62.901 48.1C62.2077 48.1 61.6277 48.2933 61.161 48.68C60.6943 49.0533 60.461 49.5533 60.461 50.18C60.461 50.7933 60.6943 51.2933 61.161 51.68C61.6277 52.0667 62.2077 52.26 62.901 52.26C63.5943 52.26 64.1743 52.0667 64.641 51.68C65.1077 51.2933 65.341 50.7933 65.341 50.18C65.341 49.5533 65.1077 49.0533 64.641 48.68C64.1743 48.2933 63.5943 48.1 62.901 48.1Z" fill="black"/>
</svg>
